<?xml version="1.0" encoding="iso-8859-1"?>
<!-- Uploaded to: SVG Repo, www.svgrepo.com, Generator: SVG Repo Mixer Tools -->
<svg height="800px" width="800px" version="1.1" id="Layer_1" xmlns="http://www.w3.org/2000/svg" xmlns:xlink="http://www.w3.org/1999/xlink" 
	 viewBox="0 0 512 512" xml:space="preserve">
<path style="fill:#40CACF;" d="M1.859,205.174c0-2.573,1.17-5.008,3.179-6.615L245.416,3.713c6.187-4.95,14.981-4.95,21.168,0
	l240.379,194.846c2.01,1.607,3.179,4.042,3.179,6.615L256,325.63L1.859,205.174z"/>
<polygon style="fill:#3AB0B0;" points="264.472,427.286 510.142,205.174 1.859,205.174 "/>
<path style="fill:#F1EDE8;" d="M421.86,123.795c-0.608-38.077-10.838-61.495-29.586-67.722
	c-18.747-6.231-40.957,6.414-64.227,36.558c-21.249,27.527-40.961,66.794-55.501,110.569
	c-14.541,43.774-22.245,87.031-21.689,121.799c0.607,38.077,10.837,61.495,29.585,67.722c3.113,1.036,6.32,1.548,9.613,1.548
	c16.538,0,35.209-12.968,54.615-38.106c21.248-27.527,40.96-66.794,55.5-110.569C414.712,201.822,422.414,158.564,421.86,123.795z"
	/>
<path style="fill:#DE90C7;" d="M388.123,83.704c-2.012-2.91-5.709-4.133-9.061-3.009c-3.572,1.201-16.703,7.202-35.737,34.007
	c-17.695,24.92-34.267,59.194-46.663,96.509c-12.395,37.312-19.625,74.69-20.36,105.247c-0.79,32.867,6.143,45.533,8.286,48.632
	c1.513,2.188,3.977,3.425,6.533,3.425c0.844,0,1.697-0.136,2.529-0.415c3.572-1.201,16.704-7.201,35.739-34.007
	c17.697-24.924,34.268-59.198,46.661-96.509c12.396-37.311,19.626-74.689,20.361-105.247
	C397.202,99.467,390.268,86.802,388.123,83.704z"/>
<path style="fill:#C971C2;" d="M281.224,271.277c-2.885,16.03-4.587,31.318-4.92,45.181c-0.79,32.867,6.143,45.533,8.286,48.632
	c1.513,2.188,3.977,3.425,6.533,3.425c0.844,0,1.697-0.136,2.529-0.415c3.572-1.201,16.704-7.201,35.739-34.007
	c17.697-24.924,34.268-59.198,46.661-96.509c0.539-1.621,1.05-3.242,1.565-4.864L281.224,271.277z"/>
<path style="fill:#F1EDE8;" d="M227.444,177.807c-0.83-2.499-1.678-4.982-2.541-7.451c-1.191-3.402-4.399-5.683-8.004-5.683H95.455
	c-5.441,0-9.465,5.05-8.264,10.357c3.342,14.771,7.568,29.939,12.629,45.172c14.54,43.775,34.252,83.042,55.5,110.569
	c19.406,25.139,38.077,38.106,54.615,38.106c3.293,0,6.5-0.513,9.613-1.548c18.748-6.228,28.978-29.646,29.585-67.722
	C249.689,264.837,241.986,221.581,227.444,177.807z"/>
<path style="fill:#DE90C7;" d="M223.685,291.065c-0.706-29.391-7.437-65.093-18.978-100.978h-87.499
	c2.036,7.335,4.276,14.719,6.728,22.104c12.394,37.31,28.966,71.585,46.661,96.509c19.034,26.807,32.167,32.806,35.739,34.007
	c0.831,0.28,1.685,0.415,2.529,0.415c2.555,0,5.019-1.237,6.533-3.425C217.543,336.598,224.475,323.932,223.685,291.065z"/>
<path style="fill:#C971C2;" d="M222.049,267.973l-91.053-36.041c11.32,29.559,25.081,56.315,39.603,76.768
	c19.034,26.807,32.167,32.806,35.739,34.007c0.831,0.28,1.685,0.415,2.529,0.415c2.555,0,5.019-1.237,6.533-3.425
	c2.143-3.099,9.076-15.765,8.286-48.632C223.509,283.729,222.957,276,222.049,267.973z"/>
<path style="fill:#F9C900;" d="M1.859,486.586C1.859,500.622,13.237,512,27.273,512h457.455c14.036,0,25.414-11.378,25.414-25.414
	V205.174l-247.751,100.91c-4.097,1.669-8.685,1.669-12.782,0L1.859,205.174V486.586z"/>
<path style="fill:#F9AA0C;" d="M27.273,215.525L1.859,205.174v281.412C1.859,500.622,13.237,512,27.273,512h457.455
	c14.036,0,25.414-11.378,25.414-25.414H35.744c-4.678,0-8.471-3.793-8.471-8.471C27.273,478.115,27.273,215.525,27.273,215.525z"/>
<path style="fill:#E3DCD2;" d="M216.898,164.673H91.801c-3.988,0-7.439,2.785-8.283,6.684c-5.307,24.523-9.467,47.743-9.142,68.059
	c0.607,38.077,10.837,61.495,29.585,67.722c3.113,1.036,6.32,1.548,9.613,1.548c7.081,0,14.554-2.385,22.307-7.077
	c10.355-6.267,21.211-16.655,32.308-31.03c20.18-26.143,39.705-62.878,54.022-104.003
	C220.737,165.385,218.886,164.673,216.898,164.673z"/>
<path style="fill:#D6CABB;" d="M93.985,210.913c0-16.358,3.205-31.966,9.01-46.24H91.801c-3.988,0-7.439,2.785-8.283,6.684
	c-5.307,24.523-9.467,47.743-9.142,68.059c0.607,38.077,10.837,61.495,29.585,67.722c3.113,1.036,6.32,1.548,9.613,1.548
	c6.725,0,13.807-2.178,21.145-6.414C109.714,279.788,93.985,247.189,93.985,210.913z"/>
<g>
	<path style="fill:#754F1E;" d="M315.3,376.458c-18.685,0-33.886-15.201-33.886-33.886c0-4.678,3.793-8.471,8.471-8.471
		c4.678,0,8.471,3.793,8.471,8.471c0,9.342,7.601,16.943,16.943,16.943c9.342,0,16.943-7.601,16.943-16.943
		c0-4.678,3.793-8.471,8.471-8.471s8.471,3.793,8.471,8.471C349.185,361.257,333.985,376.458,315.3,376.458z"/>
	<path style="fill:#754F1E;" d="M196.7,376.458c-18.685,0-33.886-15.201-33.886-33.886c0-4.678,3.793-8.471,8.471-8.471
		s8.471,3.793,8.471,8.471c0,9.342,7.601,16.943,16.943,16.943s16.943-7.601,16.943-16.943c0-4.678,3.793-8.471,8.471-8.471
		c4.678,0,8.471,3.793,8.471,8.471C230.586,361.257,215.385,376.458,196.7,376.458z"/>
</g>
<path style="fill:#C971C2;" d="M256,469.643c34.117,0,62.346-25.21,67.074-58.018c0.74-5.136-3.193-9.753-8.381-9.753H197.307
	c-5.189,0-9.122,4.618-8.381,9.753C193.654,444.434,221.883,469.643,256,469.643z"/>
<path style="fill:#DE90C7;" d="M214.081,455.117c11.535,9.094,26.091,14.527,41.92,14.527s30.384-5.433,41.92-14.527
	c-2.94-20.523-20.583-36.301-41.92-36.301S217.02,434.593,214.081,455.117z"/>
<path style="fill:#F1EDE8;" d="M264.472,435.758h-16.943c-4.678,0-8.471-3.793-8.471-8.471v-25.414h33.886v25.414
	C272.943,431.965,269.15,435.758,264.472,435.758z"/>
</svg>